<svg xmlns="http://www.w3.org/2000/svg" xmlns:xlink="http://www.w3.org/1999/xlink" width="500" zoomAndPan="magnify" viewBox="0 0 375 374.999991" height="500" preserveAspectRatio="xMidYMid meet" version="1.0"><defs><clipPath id="5921ba08dc"><path d="M 7 40.601562 L 375 40.601562 L 375 325.601562 L 7 325.601562 Z M 7 40.601562 " clip-rule="nonzero"/></clipPath></defs><g clip-path="url(#5921ba08dc)"><path fill="#5e17eb" d="M 139.296875 40.585938 C 121.476562 40.585938 105.277344 50.9375 97.796875 67.113281 L 13.121094 250.175781 C -0.015625 278.5625 12.355469 312.226562 40.746094 325.359375 L 137.011719 117.25 C 142.660156 105.039062 154.886719 97.222656 168.339844 97.222656 L 318.351562 97.222656 C 349.632812 97.222656 374.988281 71.867188 374.988281 40.585938 Z M 259.660156 265.679688 L 259.660156 265.675781 L 123.484375 265.675781 C 99.898438 265.675781 80.777344 291.035156 80.777344 322.316406 L 216.957031 322.316406 C 240.539062 322.316406 259.660156 296.960938 259.660156 265.679688 Z M 267.097656 208.230469 L 130.921875 208.230469 C 130.921875 176.949219 150.042969 151.589844 173.625 151.589844 L 309.800781 151.589844 C 309.800781 182.875 290.683594 208.230469 267.097656 208.230469 " fill-opacity="1" fill-rule="nonzero"/></g></svg>