<svg xmlns="http://www.w3.org/2000/svg" xmlns:xlink="http://www.w3.org/1999/xlink" width="500" zoomAndPan="magnify" viewBox="0 0 375 374.999991" height="500" preserveAspectRatio="xMidYMid meet" version="1.0"><defs><g/><clipPath id="fe50407e76"><path d="M 3 121.855469 L 147.113281 121.855469 L 147.113281 233.183594 L 3 233.183594 Z M 3 121.855469 " clip-rule="nonzero"/></clipPath></defs><g clip-path="url(#fe50407e76)"><path fill="#5e17eb" d="M 54.753906 121.847656 C 47.75 121.847656 41.386719 125.914062 38.445312 132.273438 L 5.160156 204.226562 C 0 215.382812 4.863281 228.613281 16.019531 233.777344 L 53.859375 151.980469 C 56.078125 147.179688 60.882812 144.109375 66.171875 144.109375 L 125.132812 144.109375 C 137.425781 144.109375 147.394531 134.140625 147.394531 121.847656 Z M 102.0625 210.320312 L 102.0625 210.316406 L 48.539062 210.316406 C 39.269531 210.316406 31.753906 220.285156 31.753906 232.582031 L 85.28125 232.582031 C 94.546875 232.582031 102.0625 222.613281 102.0625 210.320312 Z M 104.988281 187.738281 L 51.464844 187.738281 C 51.464844 175.445312 58.980469 165.476562 68.25 165.476562 L 121.773438 165.476562 C 121.773438 177.773438 114.257812 187.738281 104.988281 187.738281 " fill-opacity="1" fill-rule="nonzero"/></g><g fill="#000000" fill-opacity="1"><g transform="translate(125.792823, 229.37838)"><g><path d="M 64.0625 -63.6875 L 38.3125 0 L 26.21875 0 L 0.46875 -63.6875 L 15.640625 -63.6875 L 28.75 -27.90625 L 32.21875 -17.890625 L 35.6875 -27.90625 L 48.890625 -63.6875 Z M 64.0625 -63.6875 "/></g></g></g><g fill="#000000" fill-opacity="1"><g transform="translate(190.313748, 229.37838)"><g><path d="M 55.625 0 L 41.578125 0 L 19.671875 -39.703125 L 19.671875 0 L 5.625 0 L 5.625 -63.6875 L 19.671875 -63.6875 L 41.578125 -23.96875 L 41.578125 -63.6875 L 55.625 -63.6875 Z M 55.625 0 "/></g></g></g><g fill="#000000" fill-opacity="1"><g transform="translate(251.557114, 229.37838)"><g><path d="M 32.6875 -50.953125 L 32.6875 0 L 18.640625 0 L 18.640625 -50.953125 L 0.46875 -50.953125 L 0.46875 -63.6875 L 50.859375 -63.6875 L 50.859375 -50.953125 Z M 32.6875 -50.953125 "/></g></g></g><g fill="#000000" fill-opacity="1"><g transform="translate(302.87419, 229.37838)"><g><path d="M 54.78125 -31.9375 C 54.78125 -35.25 53.90625 -38.320312 52.15625 -41.15625 C 50.414062 -44 48.125 -46.296875 45.28125 -48.046875 C 42.4375 -49.796875 39.363281 -50.671875 36.0625 -50.671875 C 32.8125 -50.671875 29.75 -49.796875 26.875 -48.046875 C 24.007812 -46.296875 21.703125 -44 19.953125 -41.15625 C 18.203125 -38.320312 17.328125 -35.25 17.328125 -31.9375 C 17.328125 -28.6875 18.203125 -25.625 19.953125 -22.75 C 21.703125 -19.882812 24.007812 -17.5625 26.875 -15.78125 C 29.75 -14 32.8125 -13.109375 36.0625 -13.109375 C 39.363281 -13.109375 42.4375 -14 45.28125 -15.78125 C 48.125 -17.5625 50.414062 -19.882812 52.15625 -22.75 C 53.90625 -25.625 54.78125 -28.6875 54.78125 -31.9375 Z M 68.84375 -31.84375 C 68.84375 -27.46875 67.96875 -23.296875 66.21875 -19.328125 C 64.46875 -15.367188 62.078125 -11.875 59.046875 -8.84375 C 56.023438 -5.820312 52.546875 -3.4375 48.609375 -1.6875 C 44.671875 0.0625 40.488281 0.9375 36.0625 0.9375 C 31.6875 0.9375 27.515625 0.0625 23.546875 -1.6875 C 19.585938 -3.4375 16.09375 -5.820312 13.0625 -8.84375 C 10.03125 -11.875 7.640625 -15.367188 5.890625 -19.328125 C 4.148438 -23.296875 3.28125 -27.46875 3.28125 -31.84375 C 3.28125 -36.28125 4.148438 -40.460938 5.890625 -44.390625 C 7.640625 -48.328125 10.03125 -51.804688 13.0625 -54.828125 C 16.09375 -57.859375 19.585938 -60.25 23.546875 -62 C 27.515625 -63.75 31.6875 -64.625 36.0625 -64.625 C 40.488281 -64.625 44.671875 -63.75 48.609375 -62 C 52.546875 -60.25 56.023438 -57.859375 59.046875 -54.828125 C 62.078125 -51.804688 64.46875 -48.328125 66.21875 -44.390625 C 67.96875 -40.460938 68.84375 -36.28125 68.84375 -31.84375 Z M 68.84375 -31.84375 "/></g></g></g></svg>