<svg xmlns="http://www.w3.org/2000/svg" xmlns:xlink="http://www.w3.org/1999/xlink" width="500" zoomAndPan="magnify" viewBox="0 0 375 374.999991" height="500" preserveAspectRatio="xMidYMid meet" version="1.0"><defs><clipPath id="16867285f4"><path d="M 7 41.875 L 375 41.875 L 375 326.875 L 7 326.875 Z M 7 41.875 " clip-rule="nonzero"/></clipPath></defs><rect x="-37.5" width="450" fill="#ffffff" y="-37.499999" height="449.999989" fill-opacity="1"/><rect x="-37.5" width="450" fill="#ffffff" y="-37.499999" height="449.999989" fill-opacity="1"/><g clip-path="url(#16867285f4)"><path fill="#d9d9d9" d="M 139.296875 41.859375 C 121.476562 41.859375 105.277344 52.210938 97.796875 68.386719 L 13.121094 251.449219 C -0.015625 279.835938 12.355469 313.5 40.746094 326.632812 L 137.011719 118.523438 C 142.660156 106.3125 154.886719 98.496094 168.339844 98.496094 L 318.351562 98.496094 C 349.632812 98.496094 374.988281 73.140625 374.988281 41.859375 Z M 259.660156 266.953125 L 259.660156 266.949219 L 123.484375 266.949219 C 99.898438 266.949219 80.777344 292.308594 80.777344 323.589844 L 216.957031 323.589844 C 240.539062 323.589844 259.660156 298.234375 259.660156 266.953125 Z M 267.097656 209.503906 L 130.921875 209.503906 C 130.921875 178.222656 150.042969 152.863281 173.625 152.863281 L 309.800781 152.863281 C 309.800781 184.148438 290.683594 209.503906 267.097656 209.503906 " fill-opacity="1" fill-rule="nonzero"/></g></svg>